<svg xmlns="http://www.w3.org/2000/svg" viewBox="0 0 128.26 127.88"><defs><style>.cls-1{fill:#414141;}.cls-2{fill:#4fd443;}</style></defs><g id="Layer_2" data-name="Layer 2"><g id="Layer_1-2" data-name="Layer 1"><path class="cls-1" d="M6.41,7.43c-1.28,7.44-.7,15.4-.27,22.92.4,7.18.19,16.19,3,22.9,1.52,3.69,6.75,3.29,7.06-1,.53-7.1-1.68-14.82-2.22-21.95-.55-7.31,0-14.77-.88-22-.39-3.42-5.93-5-6.64-.9Z"/><path class="cls-1" d="M8,9Q19.87,21.68,32.81,33.27c8.32,7.47,16.84,16.24,26.37,22.1,3.55,2.19,7.11-2.71,4.36-5.64-3.9-4.14-8.77-7.56-13.09-11.27S41.84,31,37.6,27.14C29.23,19.6,21,11.91,12.82,4.17,9.6,1.12,4.92,5.81,8,9Z"/><path class="cls-1" d="M54.39,3.05a162.17,162.17,0,0,0,2.44,49.82c1,4.89,8,2.7,7.35-2A336.62,336.62,0,0,1,60.72,3.05c0-4.17-5.89-4-6.33,0Z"/><path class="cls-1" d="M6.79,68.49c4.54,1.57,10,.75,14.75.81q7.38.08,14.74.32T51,70.21c4.82.23,10.06,1.27,14.76,0,4.11-1.08,3.36-6.23,0-7.61-4.44-1.81-10-1.33-14.76-1.56q-7.36-.36-14.73-.52t-14.74-.17c-4.75,0-10.26-.77-14.75.91a3.77,3.77,0,0,0,0,7.2Z"/><path class="cls-1" d="M28.32,66.83c-1.05,7.29-.68,14.82-.78,22.17-.05,3.86-.13,7.71-.15,11.56,0,3.54-.48,7.32.86,10.64a3.83,3.83,0,0,0,7.31,0c1.34-3.34.87-7.08.85-10.64,0-3.85-.09-7.7-.14-11.56-.1-7.34.26-14.89-.79-22.17-.51-3.54-6.64-3.55-7.16,0Z"/><path class="cls-1" d="M59.88,90.63a81.49,81.49,0,0,0,26-2.57c6.65-1.78,14.82-4.37,19.72-9.5,3.82-4,4.2-10.23-.2-14-4.71-4-13.34-4.11-19.05-3.12C72.05,64,71,82.29,75,93.47c4.75,13.27,20,20.77,33.44,17.3,3.45-.88,2.7-6.16-.84-6.17-8.62,0-18.7-2.74-23.39-10.63-3.32-5.58-5.79-21.06,2.06-24.13,3.17-1.24,9.82-1.4,12.94.17,5.31,2.68-6.61,7.69-8.8,8.54a82,82,0,0,1-30.52,5.13c-4.5,0-4.43,6.69,0,6.95Z"/><path class="cls-2" d="M121.66,99.91c-.58.21-1.16.45-1.72.71a5.17,5.17,0,0,0-1.8,1.8,5,5,0,0,0,0,5,5.06,5.06,0,0,0,1.8,1.79,18.39,18.39,0,0,0,1.72.72,5.25,5.25,0,0,0,2.78,0,5.3,5.3,0,0,0,2.3-1.34,5.24,5.24,0,0,0,0-7.38,5.3,5.3,0,0,0-2.3-1.34,5.25,5.25,0,0,0-2.78,0Z"/><path class="cls-1" d="M81.94,18.5c.14-6.9,8.31-9.62,14.08-9.58,2.9,0,6.82.41,9.24,2.18,3.41,2.5,2.18,6.78,2,10.42l-.55,10.34c-.22,4.24-.4,6-4.42,7.83-5.6,2.53-13.4,6.06-19.74,4.62-5.7-1.3,2.52-8.92,4.91-10.4a24.34,24.34,0,0,1,7.39-3c2-.45,4.62-1.1,6.51.14,1.26.83,2.39,3.47,3.19,4.67,4.77,7.13,10.18,22.59,21.29,17.85,3.7-1.58.81-6.52-2.53-6-4.31.67-6.79-6.09-8.68-9.07-2.35-3.68-4.68-7.45-7.32-10.93-3.94-5.22-10-4.6-15.8-3s-11.31,4.81-14.84,9.65C74,38,71.74,44.15,74.9,48.22,78.62,53,87,51.87,92.17,50.81A56.43,56.43,0,0,0,102.8,47.2c2.91-1.25,6.61-2.39,8.75-4.87,1.89-2.2,1.87-4.9,2-7.65.19-4.38.35-8.77.52-13.16.28-6.95.85-12.87-6.13-16.45C97.39-.34,75.86,3.46,76.58,18.5c.17,3.43,5.29,3.46,5.36,0Z"/><path class="cls-1" d="M2.31,127c4.85.67,9.82,0,14.7-.2,5.28-.2,10.56-.28,15.85-.28,9.9,0,19.8.21,29.7.37l29.67.48c10,.16,20.58,1.23,30.49-.33,3-.47,2.92-5.43,0-6-9.85-1.89-20.49-1.13-30.49-1.3l-29.67-.48c-9.9-.16-19.8-.38-29.7-.37-5.29,0-10.57.07-15.85.29-4.82.19-10.08.08-14.7,1.56-2.74.88-3.41,5.79,0,6.25Z"/></g></g></svg>
