<svg xmlns="http://www.w3.org/2000/svg" viewBox="0 0 112.89 104.93"><defs><style>.cls-1{fill:#fff;}.cls-2{fill:#5d7dd4;}.cls-3{fill:#ea88ab;}</style></defs><g id="Layer_2" data-name="Layer 2"><g id="Layer_1-2" data-name="Layer 1"><path class="cls-1" d="M27.61,29.17c-1,2.51,1.21,5.2,3.74,5.3,3,.12,4.69-2.66,4.12-5.37a3.37,3.37,0,0,0-2.42-2.41,5.16,5.16,0,0,0-6,6.52c1.27,4.06,6.81,4.47,9.25,1.31a5.77,5.77,0,0,0-3.27-9C28.86,24.4,25.27,28,25.17,32A3.93,3.93,0,0,0,28,35.75a7.9,7.9,0,0,0,5.5-.4,5.42,5.42,0,0,0,2.85-4.89,5.74,5.74,0,0,0-8.63-4.74,6.32,6.32,0,0,0-1,10,6.07,6.07,0,0,0,10-2.92,5.77,5.77,0,0,0-7.11-6.87c-4.69,1.26-5.31,7.54-1.3,10s9.19-1.66,7.94-6.22c-1.19-4.37-7.07-5.51-10-2.18a5.69,5.69,0,0,0,4.42,9.6A5.41,5.41,0,0,0,33.2,27.06a3.85,3.85,0,0,0-4.93,1c-1.07,1.38-1.18,3.81.29,5,.47.37-.22-.38-.31-.58a2.21,2.21,0,0,1-.12-1.5,2.52,2.52,0,0,1,2.66-1.75c2.23.23,2.69,3.67.43,4.28a2.27,2.27,0,0,1-2.73-1.65,2.34,2.34,0,0,1,.68-2.36,1.41,1.41,0,0,1,1.58-.62,2,2,0,0,1,2.32.54,2.35,2.35,0,0,1,.56,1,1.68,1.68,0,0,1-.35,1.65,1.44,1.44,0,0,1-.67,1.21,2.31,2.31,0,0,1-1.47.54l-.64-.1c-.58-.29-.73-.36-.46-.2s.16,0-.4-.45a1.32,1.32,0,0,1-.62-.76,2.23,2.23,0,0,1-.16-1.46,2.12,2.12,0,0,1,3-1.32,1.23,1.23,0,0,1,.52.49c.16.24.19.26.07.08s.24.64.24.86l-.06.55c-.25.5-.29.62-.14.35s.08-.15-.08.1a1.35,1.35,0,0,1-.54.52,2.22,2.22,0,0,1-1,.29,2.05,2.05,0,0,1-2.24-1.51,2.27,2.27,0,0,1,.31-1.81,1.21,1.21,0,0,1,.83-.89c.63-.3.71-.39.27-.25.37-.11.6.05.19-.09-.88-.3.8.16-.1,0L33,32c0-.52,0,0,0,.21s-.36.5-.07.16l-.27.33c.25-.24.26-.26,0,0a2.19,2.19,0,0,1-.84.32c-.13,0-.92-.11-.63,0s-.38-.18-.49-.27-.49-.65-.38-.4.13.13-.09-.48a1.32,1.32,0,0,1-.08-1.1,2,2,0,0,1,1.38-1.36c-.5.14.18,0,.33,0a2.67,2.67,0,0,1,1.6.69,2.74,2.74,0,0,1,.66,1.65c-.12.57-.14.72-.07.44s0-.14-.07.13a2.44,2.44,0,0,1-.59.77,1.14,1.14,0,0,1-.8.31c-.66.11-.79.17-.38.19L28.8,30.94a2.58,2.58,0,0,1,.45-2.08L30.71,28l.4-.05,1.63.44.86,2.42A3.15,3.15,0,0,0,31.43,27a3.2,3.2,0,0,0-3.82,2.17Z"/><path class="cls-1" d="M2.17,25.94c5.6,1.14,11.6,1.92,16-2.58,4.09-4.13,3.27-10,1.13-14.82C18.17,5.87,14,7.31,14,10s.94,6.37-1.28,8.41S5.91,20.19,3,20c-3.41-.27-4.18,5.3-.81,6Z"/><path class="cls-1" d="M26.33,6c1.06,9.79,14.87,18.57,22.46,9.66a3,3,0,0,0-3.57-4.63,8.9,8.9,0,0,1-8.48-.59C34.27,8.8,33,6.23,31.1,4.05c-1.51-1.74-5-.43-4.77,2Z"/><path class="cls-1" d="M54.42,19.11c-6.24-.06-9.55,6.37-9.69,11.89-.15,6,2.2,13,7.61,16.1,3.37,1.92,7-2.61,4.17-5.4C51.76,37,49.52,29,56,24.79a3.08,3.08,0,0,0-1.54-5.68Z"/><path class="cls-1" d="M26.29,56.7c.47-4.18,5.14-5.28,8.62-5.19s5.41,1.9,7.55,4.42,5.16-.26,4.74-2.75C44.75,38.66,21,43.45,20.43,56.7c-.18,3.83,5.45,3.66,5.86,0Z"/><path class="cls-1" d="M5.64,38.44c2.78.26,5.86,1.93,6.75,4.75s-.54,5.72-2,7.89,1.51,5.24,3.71,3.71c10-6.9,3.57-23.45-8.42-22.25a3,3,0,0,0,0,5.9Z"/><path class="cls-1" d="M76.37,39.48c3.35,0,3.36-5.21,0-5.21s-3.36,5.21,0,5.21Z"/><path class="cls-2" d="M20.74,74.4a14,14,0,0,0-1.38,8.48,13.4,13.4,0,0,0,3.41,7.41,11.73,11.73,0,0,0,14.39,2.4,9.07,9.07,0,0,0,4.72-7.1A1.58,1.58,0,0,0,40.5,84a1.63,1.63,0,0,0-1.74,1.14c-1.83,4.41-6.69,6.67-11,4.31A10,10,0,0,1,23,84a12.57,12.57,0,0,1-.67-4.12,20.75,20.75,0,0,1,.75-4.5,1.29,1.29,0,0,0-2.35-1Z"/><path class="cls-2" d="M38.86,70.33c-2.49-5-9.12-4.3-13.29-2.17a10.12,10.12,0,0,0-4.75,4.89,18,18,0,0,0-1.17,3.71,11.28,11.28,0,0,0-.36,4.16,1.25,1.25,0,0,0,2.26.29,17.37,17.37,0,0,0,1-3.17,30.28,30.28,0,0,1,1-3,7.9,7.9,0,0,1,3-3.86c2.84-1.8,8.19-3.27,10.44.19a1.07,1.07,0,0,0,1.85-1.08Z"/><path class="cls-1" d="M62.27,36.81a7.58,7.58,0,0,0,5-1,11.63,11.63,0,0,0,3.6-2.7A10.58,10.58,0,0,0,73.18,29c.41-1.59.57-3.68-.37-5.13a1.35,1.35,0,0,0-2.49.67c0,.68.11,1.25.12,1.93a6.28,6.28,0,0,1-.17,1.74,7.31,7.31,0,0,1-1.49,3,9.73,9.73,0,0,1-6.23,3.57,1.08,1.08,0,0,0-1,.93,1.06,1.06,0,0,0,.77,1.17Z"/><path class="cls-1" d="M70.42,23.7a6.22,6.22,0,0,0,2,4,12.18,12.18,0,0,0,3.82,2.55,26.8,26.8,0,0,0,4.48,1.66c1.58.39,3.73.47,5-.69A1.13,1.13,0,0,0,85,29.3c-.64-.06-1.3.09-2,0A14.75,14.75,0,0,1,81.26,29a20.21,20.21,0,0,1-3.71-1.24,10.24,10.24,0,0,1-3-1.94,6.94,6.94,0,0,1-.94-1.15c-.33-.53-.51-1.1-.81-1.64a1.29,1.29,0,0,0-2.38.65Z"/><path class="cls-1" d="M85.14,28.62c-1.3.55-1.46,2.09-1.61,3.3a12.38,12.38,0,0,0,.07,3.89,8.11,8.11,0,0,0,1.26,3,5.32,5.32,0,0,0,2.8,2.35A1.31,1.31,0,0,0,89,40.68a1.29,1.29,0,0,0,.1-1.44,7.5,7.5,0,0,0-.94-1c-.15-.14-.29-.28-.43-.43l-.2-.22-.06-.07a6.1,6.1,0,0,1-.64-1,4.4,4.4,0,0,1-.35-1,8.29,8.29,0,0,1-.1-2.73c0-.43.09-.78.17-1.24,0-.18.08-.36.11-.54s-.1.07,0,0-.12.13-.11.13a1.44,1.44,0,0,0,.51-1.95,1.46,1.46,0,0,0-1.94-.51Z"/><path class="cls-1" d="M89.05,39.21a2.24,2.24,0,0,0-1.36-.57,3.7,3.7,0,0,0-1.1.06,5,5,0,0,0-1.67.58,7,7,0,0,0-2.58,2.64,7.2,7.2,0,0,0-.88,3.78,9,9,0,0,0,.31,2,4.23,4.23,0,0,0,1,2,1.28,1.28,0,0,0,1.37.26,1.25,1.25,0,0,0,.78-1.15,9,9,0,0,0-.53-1.68,5.94,5.94,0,0,1-.17-.7s-.06-.36,0-.25,0-.22,0-.25a6.77,6.77,0,0,1,0-.78l0-.36c0,.22,0-.21,0-.2,0-.24.12-.46.19-.69,0,0,.16-.37.08-.21.05-.09.09-.19.15-.28s.1-.19.16-.28l.12-.17.14-.16a3.45,3.45,0,0,1,.28-.26l.16-.13.17-.11c.2-.13.41-.23.61-.34s.08,0-.06,0l.36-.15c-.32.14.07,0,.11,0a4.21,4.21,0,0,1,.61-.16l.31,0c.15,0,.25,0,0,0a3,3,0,0,0,1.17-.31,1.3,1.3,0,0,0,.26-2Z"/><path class="cls-1" d="M73.79,46.76a20,20,0,0,1,3.09-.23,4.75,4.75,0,0,1,2.38.79,8.09,8.09,0,0,1,1.95,1.73c.67.78,1.23,1.81,2.38,2.22A1.31,1.31,0,0,0,85.23,50c0-1.29-1-2.38-1.87-3.24a10.64,10.64,0,0,0-2.76-2.09,7.6,7.6,0,0,0-3.43-.88,11.5,11.5,0,0,0-3.68.71,1.14,1.14,0,0,0-.82,1.25,1.12,1.12,0,0,0,1.12,1Z"/><path class="cls-1" d="M63,37.49a4.21,4.21,0,0,1,1.6.51c.48.2,1,.42,1.43.64a14.45,14.45,0,0,1,3,1.86A7.78,7.78,0,0,1,71,43a7.44,7.44,0,0,1,.51,1.37A13.56,13.56,0,0,1,71.91,46c.2,1.23,2.08,1.11,2.36,0C75,43.2,73.14,40.26,71,38.52a16.12,16.12,0,0,0-3.7-2.21c-.69-.3-1.39-.58-2.09-.83A5.33,5.33,0,0,0,63,35a1.29,1.29,0,0,0-1.25,1.26A1.27,1.27,0,0,0,63,37.49Z"/><path class="cls-1" d="M87.39,20.58c2.63,0,2.63-4.09,0-4.09s-2.64,4.09,0,4.09Z"/><path class="cls-1" d="M14.93,68.43l.57-.32a1.9,1.9,0,0,0,0-3.29l-.57-.32a2.21,2.21,0,0,0-1.15-.31,2.23,2.23,0,0,0-1.15.31,2.27,2.27,0,0,0,0,3.93,2.23,2.23,0,0,0,1.15.31,2.21,2.21,0,0,0,1.15-.31Z"/><path class="cls-1" d="M55.83,55.31a.08.08,0,0,1,0-.05l-.15.35a.41.41,0,0,1,0-.09l-.22.29a.3.3,0,0,1,.08-.08l-.28.22a.18.18,0,0,1,.07-.05l-.33.14h0l-.37.05h.1L54.44,56l.08,0,.2,0,.2,0h0l-.37,0,.12,0L54.39,56a.47.47,0,0,1,.09.06l-.27-.22,0,.06a1,1,0,0,0,.44.27.92.92,0,0,0,.51.12l.36,0A1,1,0,0,0,56,56a.69.69,0,0,0,.24-.24,1,1,0,0,0,.24-.45l0-.36a1.36,1.36,0,0,0-.18-.68.21.21,0,0,0,0-.06,3.4,3.4,0,0,0-.23-.3l0,0,0,0a3.5,3.5,0,0,0-.3-.24l-.06,0,0,0-.35-.15a1.46,1.46,0,0,0-.22,0l-.22,0h0l-.4.06h-.08l.37,0h-.1a2.54,2.54,0,0,0-.47.07,2.26,2.26,0,0,0-.43.17l0,0h0l-.31.25a1.4,1.4,0,0,0-.39.65,1.55,1.55,0,0,0,0,.8l.15.35a1.47,1.47,0,0,0,.54.54,1.09,1.09,0,0,0,.55.18,1.22,1.22,0,0,0,.6,0,1.49,1.49,0,0,0,1-1Z"/><path class="cls-3" d="M48.07,69.24c2.65,6.59,6.86,12.65,11,18.4q3.16,4.45,6.62,8.68c2.25,2.75,4.51,5.87,7.3,8.08a1.91,1.91,0,0,0,2.44.15,1.86,1.86,0,0,0,.48-2.4c-2-2.94-4.64-5.47-6.9-8.2s-4.42-5.47-6.51-8.31-4-5.62-5.89-8.51-3.79-6.09-5.9-9c-.86-1.19-3.25-.53-2.6,1.09Z"/><path class="cls-3" d="M73.11,68.31c-.24,5.73-.23,11.47-.28,17.21,0,2.82-.09,5.65-.06,8.48s-.21,5.93.62,8.64a1.58,1.58,0,0,0,3,0c.82-2.63.61-5.67.66-8.39,0-2.91,0-5.82,0-8.73,0-5.74,0-11.48-.2-17.21a1.88,1.88,0,0,0-3.75,0Z"/><path class="cls-3" d="M47.69,70c-.25,2.3-.16,4.66-.22,7s-.12,4.64-.15,7c-.07,4.64-.12,9.28-.18,13.92,0,1.86-.64,5.8,1.73,6.47a2.13,2.13,0,0,0,2.34-1,7.16,7.16,0,0,0,.49-3.53c.11-4.64-.06-9.29-.1-13.93,0-2.65-.09-5.3-.14-8s0-5.34-.22-8a1.78,1.78,0,0,0-3.55,0Z"/><path class="cls-1" d="M75.67,57.23a1.66,1.66,0,0,0,.9-.2,1.79,1.79,0,0,0,.76-.48A2.74,2.74,0,0,0,78,54.89l-.09-.63a2.29,2.29,0,0,0-.6-1l-.48-.37a2.32,2.32,0,0,0-1.18-.32,1.76,1.76,0,0,0-.91.2,1.69,1.69,0,0,0-.75.49,1.78,1.78,0,0,0-.49.75,1.87,1.87,0,0,0-.2.91l.08.62a2.49,2.49,0,0,0,.61,1l.47.36a2.36,2.36,0,0,0,1.19.32Z"/><path class="cls-1" d="M61.43,62c.65,2.15,4,1.28,3.36-.89s-4-1.22-3.36.89Z"/><path class="cls-1" d="M73.88,46.56a3.84,3.84,0,0,0,.59-1.2,4.64,4.64,0,0,0,.14-.76,3.62,3.62,0,0,0,0-.57,1.09,1.09,0,0,0-.3-.72,1,1,0,0,0-.73-.3,1,1,0,0,0-.72.3,1,1,0,0,0-.3.72,3,3,0,0,1,0,.6l0-.27a2.51,2.51,0,0,1-.21.77l.11-.24a2.82,2.82,0,0,1-.37.63,1,1,0,0,0-.11.79,1,1,0,0,0,.47.61,1,1,0,0,0,.79.11l.25-.11a1,1,0,0,0,.36-.36Z"/><path class="cls-1" d="M68.33,53.73a26.64,26.64,0,0,0,3.23-3.57A17.68,17.68,0,0,0,74,46a1.14,1.14,0,0,0-.66-1.36,1.15,1.15,0,0,0-1.44.47c-.75,1.29-1.44,2.6-2.31,3.81a19.92,19.92,0,0,1-1.25,1.57q-.75.86-1.59,1.65a1.12,1.12,0,1,0,1.58,1.58Z"/><path class="cls-1" d="M90.77,23.24c-.6.74-1,1.26-1.58,2s-1.11,1.22-1.7,1.79-1.23,1.12-1.87,1.63c-.17.13,0,0-.09.06l-.24.19-.49.35a7.67,7.67,0,0,0-1.15,1,1.12,1.12,0,0,0-.17,1.34,1.1,1.1,0,0,0,1.24.51,5.22,5.22,0,0,0,1.33-.68c.39-.29.78-.59,1.16-.9a24.17,24.17,0,0,0,1.92-1.73,20.48,20.48,0,0,0,3.36-4.18,1.1,1.1,0,0,0-.28-1.41,1.09,1.09,0,0,0-1.44.09Z"/><path class="cls-1" d="M34.5,58.27a1.91,1.91,0,0,0,.94-.21,2.27,2.27,0,0,0,1.29-1.29,1.91,1.91,0,0,0,.21-.94l-.09-.65a2.57,2.57,0,0,0-.63-1.08l-.49-.38a2.41,2.41,0,0,0-1.23-.33,1.88,1.88,0,0,0-.94.21,2.13,2.13,0,0,0-1.29,1.29,1.69,1.69,0,0,0-.21.94l.08.65a2.48,2.48,0,0,0,.63,1.07l.49.38a2.59,2.59,0,0,0,1.24.34Z"/><path class="cls-1" d="M58.07,14.07c2.27-2.69,5.34-4.26,8.54-5.61A68.49,68.49,0,0,1,77.84,4.55a21.61,21.61,0,0,1,17.86,4,23.29,23.29,0,0,1,9.24,15.09c.87,6.67-2,13.37-4.68,19.33-3.12,7.06-6.71,14.14-7,22-.09,2.12,3.1,2.07,3.26,0,.58-7.28,3.75-14,6.56-20.6s5.18-13.45,4.7-20.74C106.88,10,93.68-1.27,80,.12,75.1.61,70.48,2.2,65.84,3.79,61.61,5.23,57.39,7,54.15,10.15c-2.57,2.54,1.64,6.62,3.92,3.92Z"/><path class="cls-1" d="M111.07,79.8c-.74-4.5-3.91-7.8-6.87-11A29,29,0,0,1,100,63.23,11.65,11.65,0,0,1,98.73,60a22.55,22.55,0,0,1-.18-3.58A1.37,1.37,0,0,0,96,55.68c-2.52,4.52,1.4,10.41,4.35,13.69s7,6.52,8.35,11.08a1.22,1.22,0,0,0,2.36-.65Z"/><path class="cls-1" d="M112.49,79.55l0,0v2a2,2,0,0,0,.34-.72l.09-.66a1.9,1.9,0,0,0-.22-1,1.85,1.85,0,0,0-.52-.81,2,2,0,0,0-.81-.52,2.32,2.32,0,0,0-1.93,0,2,2,0,0,0-.81.52l-.39.51a2.45,2.45,0,0,0-.35,1.27l.09.66a2.5,2.5,0,0,0,.65,1.11l.51.4a1.85,1.85,0,0,0,.93.29,1.89,1.89,0,0,0,1,0,1.84,1.84,0,0,0,.72-.34h-2l0,0,.47.2a1.44,1.44,0,0,0,.77,0,1,1,0,0,0,.5-.13,1.42,1.42,0,0,0,.62-.4l.31-.4.2-.46a1.48,1.48,0,0,0,0-.78,1.49,1.49,0,0,0-.23-.73Z"/><path class="cls-1" d="M84.75,82.32c.07-2.78,3.57-3.49,5.46-4.72a11.46,11.46,0,0,0,4.24-5.33,26.48,26.48,0,0,0,1.68-7c.18-1.37.32-2.74.56-4.1s.68-2.81.9-4.23a1.46,1.46,0,0,0-2.66-1.12c-1.54,2.36-1.64,5.59-1.93,8.32a25.1,25.1,0,0,1-1.54,7.44,9.29,9.29,0,0,1-1.8,2.78,18.31,18.31,0,0,1-3.13,2.26c-2,1.32-3.89,3.13-3.83,5.67a1,1,0,0,0,2,0Z"/><path class="cls-1" d="M97.55,86.35c1.77-5.06-.61-9.91-1.72-14.8-1.25-5.52.75-10.64,2.46-15.81.47-1.42-1.64-1.9-2.18-.6-2,4.77-3.65,10-2.91,15.2s4,10.23,2.38,15.47c-.39,1.27,1.54,1.77,2,.54Z"/><path class="cls-1" d="M96.51,90.27a1.88,1.88,0,0,0,1-.22,1.85,1.85,0,0,0,.81-.52,1.83,1.83,0,0,0,.51-.8,1.88,1.88,0,0,0,.22-1l-.09-.67a2.5,2.5,0,0,0-.64-1.1l-.51-.39a2.43,2.43,0,0,0-1.26-.34,1.74,1.74,0,0,0-1,.21,2.28,2.28,0,0,0-1.33,1.32,2,2,0,0,0-.21,1l.09.66a2.5,2.5,0,0,0,.64,1.1l.51.39a2.54,2.54,0,0,0,1.26.35Z"/><path class="cls-1" d="M82.48,86.77l.3.17.49.21a1.57,1.57,0,0,0,.83,0,1,1,0,0,0,.53-.14,1.61,1.61,0,0,0,.67-.43l.32-.42.21-.5a1.53,1.53,0,0,0,0-.82,1.67,1.67,0,0,0-.25-.78l-.17-.3a2.2,2.2,0,0,0-1.88-1.07L83,82.8a2.12,2.12,0,0,0-1,.56,1.66,1.66,0,0,0-.45.69,1.62,1.62,0,0,0-.19.84,2.14,2.14,0,0,0,.3,1.1,2.24,2.24,0,0,0,.78.78Z"/></g></g></svg>
