<svg xmlns="http://www.w3.org/2000/svg" viewBox="0 0 120.68 102.16"><defs><style>.cls-1{fill:#fff;}.cls-2{fill:#8dc800;}.cls-3{fill:#5d7dd4;}</style></defs><g id="Layer_2" data-name="Layer 2"><g id="Layer_1-2" data-name="Layer 1"><path class="cls-1" d="M25,57.63c-6.24-3.88-13.74-8.09-17.18-14.92-4.54-9,.91-18.6,8.39-23.91C29.79,9.15,49.59,5.36,66,6.73c16.21,1.35,31.57,9.07,40.67,22.8,4.11,6.2,7,13.38,7.33,20.86.23,5-1,18.19-8.33,17.6-4.48-.36-4.4,6.52,0,7,15.82,1.56,16.28-20.58,14.12-31-3-14.2-12.32-26.77-24.44-34.54C81.18.34,63.54-1.47,47.23,1,31.65,3.4,11.8,9.64,3.37,24.15-6.66,41.43,7.49,55,22.12,62.49c3.21,1.64,5.93-2.93,2.84-4.86Z"/><path class="cls-1" d="M40.69,52.57c-4,3.9-8.08.11-12.63,1.45a7.75,7.75,0,0,0-5.38,5.65c-1.46,6.08,2.5,13.18,7.64,16.29,7.52,4.55,16.33.86,24.38,3.29,4.68,1.41,6,3.52,8.36,7.49,1.44,2.42,3,4.44,5.78,5.26s4.71-2.77,2.79-4.8c-3.37-3.56-4.94-9-9.34-11.52-5.08-2.93-12.14-3.58-17.83-3.1-3.8.32-8,.79-11.34-1.41-2.4-1.56-6-6.71-4.22-9.79,1.2-2.1,7.6-.28,9.67-.85,2.74-.75,4.58-2.59,6.2-4.81,1.79-2.44-2-5.15-4.08-3.15Z"/><path class="cls-1" d="M107.12,74.58c-2.65,4.62-5.11,11-10.76,12.5-4.92,1.35-13-1-16.85-4.24-2.29-1.9-6.65.7-4.51,3.48,4.34,5.65,14.69,8,21.49,6.88,7.92-1.35,13.05-9.49,15.23-16.67.83-2.74-3.19-4.42-4.6-2Z"/><path class="cls-1" d="M82.5,100.4a68.47,68.47,0,0,0,2.39-12c.38-3-4.4-3.48-5.14-.69a68.82,68.82,0,0,0-2.2,12c-.22,2.93,4.12,3.27,5,.67Z"/><path class="cls-2" d="M82.25,14.6c.53,4.34,1.43,8.6,1.83,13s.61,8.77.81,13.17.42,8.78.87,13.15.79,8.87,2.73,12.79a1.55,1.55,0,0,0,2.87-.77c-.08-4.33-1.16-8.64-1.57-13S89.16,44.33,89,40s-.42-8.63-.84-12.93-.84-8.91-2.31-13a1.82,1.82,0,0,0-2-1.29,1.77,1.77,0,0,0-1.57,1.77Z"/><path class="cls-2" d="M93.17,43a5.53,5.53,0,0,0,3,.48,7.6,7.6,0,0,0,2.93-.63c2.26-1,2.87-3.38,2.24-5.66S99,32.91,98.62,30.47a5,5,0,0,1,1.89-5.08,1.18,1.18,0,0,0-1.19-2c-4.37,1.89-4,7.69-2.42,11.32.42,1,1,1.92,1.32,2.94a1.49,1.49,0,0,1-.46,1.9c.19-.14-.11,0-.18.08a1.4,1.4,0,0,1-.29.11,4.32,4.32,0,0,1-.86.16,13,13,0,0,0-2.86,0,1.73,1.73,0,0,0-.4,3.12Z"/><path class="cls-3" d="M76.21,37.81a14,14,0,0,0-1.39,8.48,13.4,13.4,0,0,0,3.41,7.41,11.73,11.73,0,0,0,14.39,2.4A9.07,9.07,0,0,0,97.34,49,1.57,1.57,0,0,0,96,47.44a1.62,1.62,0,0,0-1.74,1.14c-1.84,4.41-6.7,6.67-11.06,4.31a9.94,9.94,0,0,1-4.69-5.47,12.32,12.32,0,0,1-.68-4.12,21.37,21.37,0,0,1,.75-4.5,1.29,1.29,0,0,0-2.34-1Z"/><path class="cls-2" d="M66.25,25.35c1.18-.82,2.92-1.76,4.31-.84a4.42,4.42,0,0,1,1.5,2.91c.62,3.07-.75,6.17-.35,9.28a7.89,7.89,0,0,0,5.93,6.58,20.08,20.08,0,0,0,4.49.69,21,21,0,0,0,5.93,0,1.6,1.6,0,0,0,0-3.06c-1.84-.56-4-.34-5.93-.43a13.31,13.31,0,0,1-4.43-.76c-3.38-1.37-2.91-5-2.56-8s.25-6-1.75-8.4a5.05,5.05,0,0,0-3.55-1.84c-1.79-.11-3.34,1-4.71,2-1.1.84-.08,2.73,1.12,1.91Z"/><path class="cls-1" d="M53.82,38.62a8.24,8.24,0,0,0-7.38,6.14,7.9,7.9,0,0,0,3.94,8.55,10.38,10.38,0,0,0,5.69.89,6.8,6.8,0,0,0,5-2.6c2.11-2.85,1.67-7.31-.38-10.06-2.45-3.27-7.37-4.44-10.79-1.93a1.56,1.56,0,0,0-.54,2.06,1.52,1.52,0,0,0,2.05.54,4.86,4.86,0,0,1,6.22.37,6.13,6.13,0,0,1,1.42,6.52c-1,2.43-4.26,2.49-6.43,1.9a4.84,4.84,0,0,1-3.41-4.69,5.14,5.14,0,0,1,4.57-4.69,1.5,1.5,0,0,0,0-3Z"/><path class="cls-1" d="M35.41,25.5a11.69,11.69,0,0,0-13,2.39,14.29,14.29,0,0,0-3.55,6.3,9.23,9.23,0,0,0,1.1,7.4,12.71,12.71,0,0,0,5,5.11,11.83,11.83,0,0,0,6.34,1.06A14.31,14.31,0,0,0,37.9,45.5a9.36,9.36,0,0,0,3.83-5.81c1.21-5.39-.93-11.4-6.08-13.88-1.73-.84-3.25,1.75-1.51,2.59a9,9,0,0,1,4.93,8.75,7.7,7.7,0,0,1-1.87,5.07,9.56,9.56,0,0,1-4.67,2.32c-3.32.76-6.71.05-8.82-2.75-1.19-1.58-2.34-3.33-2.21-5.39a10.51,10.51,0,0,1,2.05-5.22A8.69,8.69,0,0,1,33.9,28.09,1.55,1.55,0,0,0,36,27.55a1.51,1.51,0,0,0-.54-2.05Z"/><path class="cls-1" d="M31.59,25.72a11.86,11.86,0,0,0,.17-2.66A1.61,1.61,0,0,0,31.32,22a1.52,1.52,0,0,0-1.06-.44,1.5,1.5,0,0,0-1.5,1.5A9.37,9.37,0,0,1,28.69,25l.06-.4c0,.12,0,.23-.05.35a1.12,1.12,0,0,0,0,.6,1.16,1.16,0,0,0,.18.56,1.5,1.5,0,0,0,2,.53,1.46,1.46,0,0,0,.69-.89Z"/><path class="cls-1" d="M39.41,29.29l1.18-1.18a1.11,1.11,0,0,0,.31-.49A1.06,1.06,0,0,0,41,27a1,1,0,0,0-.13-.57,1.11,1.11,0,0,0-.31-.49l-.3-.23a1.55,1.55,0,0,0-.76-.21l-.4.06a1.57,1.57,0,0,0-.66.38l-1.18,1.19a1.14,1.14,0,0,0-.31.48,1.36,1.36,0,0,0,0,1.16,1.08,1.08,0,0,0,.31.48l.3.24a1.54,1.54,0,0,0,.76.2l.4-.05a1.49,1.49,0,0,0,.66-.39Z"/><path class="cls-1" d="M41.5,37.81h2a1.5,1.5,0,0,0,1.06-.44,1,1,0,0,0,.31-.48,1.06,1.06,0,0,0,.13-.58,1.52,1.52,0,0,0-.44-1.06,1.54,1.54,0,0,0-1.06-.44h-2a1.56,1.56,0,0,0-1.06.44,1.21,1.21,0,0,0-.31.49,1.25,1.25,0,0,0-.13.57,1.54,1.54,0,0,0,.44,1.06,1.58,1.58,0,0,0,1.06.44Z"/><path class="cls-1" d="M38.08,45.7h0l-.36-.15a1.55,1.55,0,0,1,.32.2l-.3-.24c.65.51,1.06,1.24,1.66,1.8a1.54,1.54,0,0,0,1.06.44,1.11,1.11,0,0,0,.57-.13,1.21,1.21,0,0,0,.49-.31A1.56,1.56,0,0,0,42,46.26a1.54,1.54,0,0,0-.44-1.06,14.54,14.54,0,0,1-1-1.11,4.76,4.76,0,0,0-.54-.56,4.53,4.53,0,0,0-.55-.43,3.67,3.67,0,0,0-.6-.29,1.22,1.22,0,0,0-.6,0,1.34,1.34,0,0,0-1,.57,1.14,1.14,0,0,0-.27.51A1.49,1.49,0,0,0,37.18,45l.24.31a1.45,1.45,0,0,0,.66.38Z"/><path class="cls-1" d="M29,47.45V49.6a1.54,1.54,0,0,0,.44,1.06,1.52,1.52,0,0,0,1.06.44,1.5,1.5,0,0,0,1.06-.44A1.54,1.54,0,0,0,32,49.6V47.45a1.54,1.54,0,0,0-.44-1.06A1.52,1.52,0,0,0,30.48,46a1.46,1.46,0,0,0-1.06.44A1.54,1.54,0,0,0,29,47.45Z"/><path class="cls-1" d="M21.26,46.53,23,44.82a1.24,1.24,0,0,0,.31-.48,1.29,1.29,0,0,0,.13-.58,1.27,1.27,0,0,0-.13-.58A1.11,1.11,0,0,0,23,42.7,1.47,1.47,0,0,0,22,42.26a1.54,1.54,0,0,0-1.06.44l-1.78,1.7a1.21,1.21,0,0,0-.31.49,1.15,1.15,0,0,0-.13.58,1.14,1.14,0,0,0,.13.57,1.21,1.21,0,0,0,.31.49A1.56,1.56,0,0,0,20.2,47a1.61,1.61,0,0,0,1.06-.44Z"/><path class="cls-1" d="M16.65,37.61l1.84.17a1.08,1.08,0,0,0,.58-.13,1.14,1.14,0,0,0,.48-.31,1,1,0,0,0,.31-.48,1.15,1.15,0,0,0,.13-.58,1.54,1.54,0,0,0-.44-1.06l-.3-.23a1.48,1.48,0,0,0-.76-.21l-1.84-.17a1.17,1.17,0,0,0-.58.13,1.24,1.24,0,0,0-.48.31,1.14,1.14,0,0,0-.31.48,1.17,1.17,0,0,0-.13.58,1.54,1.54,0,0,0,.44,1.06l.3.24a1.57,1.57,0,0,0,.76.2Z"/><path class="cls-1" d="M20.09,27.53c.48.55.95,1.12,1.4,1.7l-.23-.31.38.5a1,1,0,0,0,.38.42,1.26,1.26,0,0,0,.51.27,1.22,1.22,0,0,0,.6,0,1.12,1.12,0,0,0,.56-.18,1.52,1.52,0,0,0,.69-.9l.05-.4a1.5,1.5,0,0,0-.2-.75c-.64-.86-1.31-1.7-2-2.5a1.27,1.27,0,0,0-.48-.32,1.17,1.17,0,0,0-.58-.12,1.5,1.5,0,0,0-1.06.44,1.46,1.46,0,0,0-.44,1.06l.05.39a1.47,1.47,0,0,0,.39.67Z"/><path class="cls-1" d="M53,37.86c-.09.39-.19.78-.27,1.17a1,1,0,0,0,0,.6,1.16,1.16,0,0,0,.18.56,1.18,1.18,0,0,0,.38.42,1.26,1.26,0,0,0,.51.27l.4,0a1.54,1.54,0,0,0,.76-.2l.3-.24a1.49,1.49,0,0,0,.39-.66c.09-.39.19-.78.27-1.17a1.66,1.66,0,0,0-.15-1.16,1.18,1.18,0,0,0-.38-.42,1.26,1.26,0,0,0-.51-.27l-.4-.05a1.54,1.54,0,0,0-.76.2l-.3.24a1.39,1.39,0,0,0-.39.66Z"/><path class="cls-1" d="M46.22,48.17l.08,0-.36.15a1.25,1.25,0,0,1,.26-.07l-.4.06a.94.94,0,0,1,.29,0l-.4,0a1.11,1.11,0,0,1,.26.07l-.36-.15.09,0a1.09,1.09,0,0,0,.55.18,1.22,1.22,0,0,0,.6,0,1.14,1.14,0,0,0,.51-.27,1.06,1.06,0,0,0,.39-.42l.15-.36a1.51,1.51,0,0,0,0-.79l-.15-.36a1.47,1.47,0,0,0-.54-.54,3.9,3.9,0,0,0-.47-.2l-.12,0a4.67,4.67,0,0,0-.52-.08h-.26a4.67,4.67,0,0,0-.52.08l-.12,0-.41.17-.07,0a1.12,1.12,0,0,0-.42.39,1.14,1.14,0,0,0-.27.51,1.08,1.08,0,0,0,0,.59,1.12,1.12,0,0,0,.18.56l.23.31a1.57,1.57,0,0,0,.66.38l.4.06a1.58,1.58,0,0,0,.76-.21Z"/><path class="cls-1" d="M55,56a1.5,1.5,0,0,0,0-3,1.5,1.5,0,0,0,0,3Z"/><path class="cls-1" d="M61.63,48a3,3,0,0,1,.73,0l-.4-.05a3.73,3.73,0,0,1,.46.09A1.18,1.18,0,0,0,63,48a1.12,1.12,0,0,0,.56-.18,1,1,0,0,0,.42-.39,1.14,1.14,0,0,0,.27-.51l0-.39a1.42,1.42,0,0,0-.2-.76l-.24-.31a1.45,1.45,0,0,0-.66-.38,5.31,5.31,0,0,0-1-.16,3.11,3.11,0,0,0-.61,0,1.06,1.06,0,0,0-.58.13,1.36,1.36,0,0,0-.79.79,1.06,1.06,0,0,0-.13.58l0,.4a1.49,1.49,0,0,0,.39.66l.3.23a1.48,1.48,0,0,0,.76.21Z"/><path class="cls-1" d="M45.76,43.67l.58.49a1.11,1.11,0,0,0,.49.31,1,1,0,0,0,.57.13,1.06,1.06,0,0,0,.58-.13,1.11,1.11,0,0,0,.49-.31l.23-.3a1.47,1.47,0,0,0,.2-.76l0-.4a1.57,1.57,0,0,0-.38-.66l-.59-.49a1.14,1.14,0,0,0-.48-.31,1.36,1.36,0,0,0-1.16,0,1.14,1.14,0,0,0-.48.31l-.24.3a1.54,1.54,0,0,0-.2.76l0,.4a1.49,1.49,0,0,0,.39.66Z"/><path class="cls-1" d="M49,40.14l.38.54a1.12,1.12,0,0,0,.39.42,1.14,1.14,0,0,0,.51.27,1.08,1.08,0,0,0,.59,0,1,1,0,0,0,.56-.17l.31-.24a1.57,1.57,0,0,0,.38-.66l0-.4a1.47,1.47,0,0,0-.2-.76l-.38-.53a1,1,0,0,0-.39-.42,1,1,0,0,0-.51-.27,1.08,1.08,0,0,0-.59,0,1.12,1.12,0,0,0-.56.18l-.31.23a1.54,1.54,0,0,0-.38.67l0,.39a1.44,1.44,0,0,0,.2.76Z"/><path class="cls-1" d="M57.6,38.43l-.37.38a1.14,1.14,0,0,0-.31.48,1.36,1.36,0,0,0,0,1.16,1,1,0,0,0,.31.48l.3.24a1.54,1.54,0,0,0,.76.2l.4,0a1.49,1.49,0,0,0,.66-.39l.38-.38a1.11,1.11,0,0,0,.31-.48,1.27,1.27,0,0,0,.13-.58,1.22,1.22,0,0,0-.13-.57,1.21,1.21,0,0,0-.31-.49l-.31-.23a1.42,1.42,0,0,0-.75-.21l-.4.06a1.54,1.54,0,0,0-.67.38Z"/><path class="cls-1" d="M61,41.4l-.65.21a1.26,1.26,0,0,0-.51.27,1.18,1.18,0,0,0-.38.42,1.16,1.16,0,0,0-.18.56,1.11,1.11,0,0,0,0,.6l.16.36a1.61,1.61,0,0,0,.53.54l.36.15a1.55,1.55,0,0,0,.8,0l.64-.22a1.23,1.23,0,0,0,.52-.27,1,1,0,0,0,.38-.42,1.66,1.66,0,0,0,.15-1.16l-.15-.35a1.4,1.4,0,0,0-.54-.54l-.36-.15a1.51,1.51,0,0,0-.79,0Z"/><path class="cls-1" d="M48.35,51.93l.22-.22a1.14,1.14,0,0,0,.31-.48,1.36,1.36,0,0,0,0-1.16,1.08,1.08,0,0,0-.31-.48l-.3-.24a1.57,1.57,0,0,0-.76-.2l-.4.05a1.49,1.49,0,0,0-.66.39l-.22.21a1.21,1.21,0,0,0-.31.49,1.34,1.34,0,0,0,0,1.15,1.21,1.21,0,0,0,.31.49l.31.23a1.51,1.51,0,0,0,.75.21l.4-.06a1.45,1.45,0,0,0,.66-.38Z"/><path class="cls-1" d="M52,54.65l.23-.54a1.09,1.09,0,0,0,.18-.55,1.22,1.22,0,0,0,0-.6,1.72,1.72,0,0,0-.69-.9l-.36-.15a1.55,1.55,0,0,0-.8,0l-.35.15a1.47,1.47,0,0,0-.54.54l-.23.53a1.16,1.16,0,0,0-.18.56,1.12,1.12,0,0,0,0,.6,1.06,1.06,0,0,0,.27.51,1.13,1.13,0,0,0,.42.39l.35.15a1.55,1.55,0,0,0,.8,0l.36-.15a1.55,1.55,0,0,0,.54-.54Z"/><path class="cls-1" d="M58.93,55.29a1.5,1.5,0,0,0,0-3,1.5,1.5,0,0,0,0,3Z"/><path class="cls-1" d="M60.32,51.2l.11.21a1.72,1.72,0,0,0,.9.69,1.22,1.22,0,0,0,.6,0,1.09,1.09,0,0,0,.55-.18l.31-.23a1.54,1.54,0,0,0,.38-.67l.06-.4A1.42,1.42,0,0,0,63,49.9l-.11-.22a1.18,1.18,0,0,0-.38-.42A1.26,1.26,0,0,0,62,49a1.11,1.11,0,0,0-.6,0,1.22,1.22,0,0,0-.56.17l-.3.24a1.49,1.49,0,0,0-.39.66l-.05.4a1.57,1.57,0,0,0,.2.76Z"/><path class="cls-3" d="M94.32,33.73c-2.19-4.45-7.94-4.4-11.94-2.79A11.26,11.26,0,0,0,77,35c-1.28,1.91-2.68,5.3-.44,7.11a1.25,1.25,0,0,0,2.07-1.2,3.41,3.41,0,0,1,0-2.23,10.87,10.87,0,0,1,1.45-2.28,8.78,8.78,0,0,1,3.58-2.64c2.7-1.14,6.88-1.86,8.78,1a1.07,1.07,0,0,0,1.85-1.08Z"/><path class="cls-2" d="M73.54,38.51a9.24,9.24,0,0,0,2.83,3.19,6.72,6.72,0,0,0,2.16.85,7.38,7.38,0,0,0,2.52.53,1.08,1.08,0,0,0,1-.93A1.07,1.07,0,0,0,81.33,41a4.46,4.46,0,0,0-.71-.14h-.08l-.24,0c-.37-.06-.73-.14-1.09-.22a6,6,0,0,1-1.7-.7,4.05,4.05,0,0,1-.35-.21L77,39.5c-.14-.09.1.09,0,0a4,4,0,0,1-.63-.61l-.17-.19,0,0a3.28,3.28,0,0,1-.27-.38,8.15,8.15,0,0,1-.49-.8,1,1,0,0,0-1.42-.37,1.06,1.06,0,0,0-.37,1.42Z"/><path class="cls-2" d="M72.48,38.63a1.24,1.24,0,0,0,0,.16s0-.32,0-.11a1.89,1.89,0,0,0,.23.8,6.41,6.41,0,0,0,.58.79,6.24,6.24,0,0,0,1,.92,11.38,11.38,0,0,0,1.37.93,9.66,9.66,0,0,0,1.55.76,2.84,2.84,0,0,0,2.54,0,1.4,1.4,0,0,0,.54-1.49A1.93,1.93,0,0,0,79,40.12c-.49-.19-1-.35-1.49-.5a.65.65,0,0,0-.13,0c.21,0,.28.12.13.05l-.32-.15c-.21-.11-.42-.22-.62-.34L76,38.71c-.16-.11.23.2.09.08l-.17-.14-.27-.24c-.19-.18-.4-.34-.59-.52a2.25,2.25,0,0,0-.74-.48.58.58,0,0,0-.14,0l.16.07-.14-.09a1.16,1.16,0,0,0-1.68,1.29Z"/></g></g></svg>