<svg id="Layer_1" data-name="Layer 1" xmlns="http://www.w3.org/2000/svg" viewBox="0 0 288 288"><path d="M372.91,373V636h34.76c3.29,0,7.94-7,7.94-7a77.07,77.07,0,0,0,6-11c2-6,2.88-10.46,3-22,1-115.92,0-146.78,0-190,0-3-3.44-12.94-6-18-2-4-5.65-7.77-9.93-11-4-3-7-4-7.94-4C395.81,373,372.91,372.11,372.91,373Z" transform="translate(-360 -360)"/><path d="M504,502c7.94,0,18.87-3,18.87-3,4-1,12.91-6,15.89-8s13.75-15.65,16.88-23c8.94-21,6-57-8.94-75-6.75-8.17-12.91-12-16.88-14-2.49-1.25-6.5-3.89-10.92-5a31.81,31.81,0,0,0-7.95-1c-6,0-41.71-.24-41.71.19V502" transform="translate(-360 -360)"/><path d="M635.09,636V373H568.55c11.92,7,41.71,29,41.71,61,0,30-8.94,55-35.75,66-4.18,1.72-12.91,7-38.73,8H469.24s-.42,33.73-.37,43.88c.12,23.62.87,50.62,3.35,64.12,2.71,14.75,11.92,19,14.9,20Z" transform="translate(-360 -360)"/><path d="M360,360V648H648V360ZM645,645H363V363H645Z" transform="translate(-360 -360)"/></svg>