<svg xmlns="http://www.w3.org/2000/svg" viewBox="0 0 100.27 116.7"><defs><style>.cls-1{fill:#fff;}.cls-2{fill:#c7a75a;}</style></defs><g id="Layer_2" data-name="Layer 2"><g id="Layer_1-2" data-name="Layer 1"><path class="cls-1" d="M33.25,75.77c9.45,8.8,27.66,9.88,37,.25a3,3,0,0,0-3.65-4.72c-10.28,5.64-19.69,6.46-29.85-.1-2.77-1.78-6,2.32-3.53,4.57Z"/><path class="cls-1" d="M29.6,50.94c-7.64-8.88-8.92-21-.33-29.7C35.68,14.73,45.56,12,54.5,13.45A26.36,26.36,0,0,1,74.52,29c4,9,2.28,17.5-1.08,26.31-1.27,3.34,3.59,4.77,5.4,2.27,6.61-9.13,5.17-22.84.49-32.47A32.54,32.54,0,0,0,52,7C40.62,6.2,29,11,22.14,20.27,14,31.33,17,45.06,25.85,54.69c2.33,2.54,6-1.19,3.75-3.75Z"/><path class="cls-1" d="M37.74,91.13c8.7,5.28,21.5,4.88,29.94-.89a3.29,3.29,0,0,0-2.52-6c-8.62,2-16.27,4.43-25,1.1-3.43-1.31-5.41,4-2.44,5.78Z"/><path class="cls-1" d="M66.86,96.68c-.61,6-1.78,14.17-8.76,16-8.64,2.32-13.39-7.59-16-13.94a1.91,1.91,0,0,0-2.28-1.29,1.86,1.86,0,0,0-1.29,2.28c2.7,6.72,6.22,14.62,14,16.55a12.77,12.77,0,0,0,10.41-1.93,15.32,15.32,0,0,0,5.38-7.47A22.57,22.57,0,0,0,69.4,96.34c-.22-1.55-2.4-1-2.54.34Z"/><path class="cls-1" d="M47.46,112.11a22.84,22.84,0,0,0,16.64-.82c1.31-.63.39-2.87-1-2.36a24,24,0,0,1-7.42,1.67,21.13,21.13,0,0,1-7.52-1.07c-1.63-.55-2.34,2-.71,2.58Z"/><path class="cls-1" d="M40.63,99.76a1,1,0,0,0,0-2,1,1,0,0,0,0,2Z"/><path class="cls-1" d="M40.15,100.07a34.3,34.3,0,0,0,14,2c4.58-.21,9.66-1,13.68-3.3a1.3,1.3,0,0,0-1-2.36c-4.33,1.16-8.38,2.49-12.91,2.68a45.42,45.42,0,0,1-13.07-1.58,1.32,1.32,0,0,0-.7,2.54Z"/><path class="cls-1" d="M36.71,70.46c-2.64-3.11-2.71-7.53-3.39-11.37a19.06,19.06,0,0,0-3.93-9.36c-1.9-2.3-5.92.76-4.17,3.22,4.59,6.46,2.27,15.12,7.63,21.37,2.29,2.68,6.13-1.2,3.86-3.86Z"/><path class="cls-1" d="M65.2,78c3.3,0,3.3-5.12,0-5.12S61.91,78,65.2,78Z"/><path class="cls-1" d="M67.39,77.07c3.68-1.87,4.42-5.58,5.31-9.28A24.64,24.64,0,0,1,80.23,55c2.29-2.16-.75-6.31-3.43-4.45a22,22,0,0,0-7.42,9.57,48.84,48.84,0,0,0-2,5.54c-.62,2-.84,5.22-3,6.26-3.45,1.67-.43,6.91,3,5.16Z"/><path class="cls-2" d="M45.3,31.84a8.89,8.89,0,0,0-6.48,3.66c-1.56,2.46-.69,5.42,1.32,7.31a18.28,18.28,0,0,0,8,3.91,32.19,32.19,0,0,0,10,.84,1.17,1.17,0,0,0,0-2.33,29.38,29.38,0,0,1-8-1.09,24.23,24.23,0,0,1-6.82-2.8c-1.3-.87-2.77-2.41-1.94-4.08s3-2.38,4.57-3.06c1.12-.49.59-2.52-.64-2.36Z"/><path class="cls-2" d="M54.29,34.18c3.58.43,8,.93,10.37,3.93a5.34,5.34,0,0,1,1,2.13,4.46,4.46,0,0,1,0,1.89A3.47,3.47,0,0,1,63.1,45a1.13,1.13,0,0,0,.3,2.21,5.44,5.44,0,0,0,4.2-2.44,6.48,6.48,0,0,0,1.25-5c-.57-3.77-4.1-6.37-7.51-7.44a27.42,27.42,0,0,0-7.05-.89A1.35,1.35,0,0,0,53,32.85a1.36,1.36,0,0,0,1.33,1.33Z"/><path class="cls-2" d="M47.78,21.51A182.94,182.94,0,0,1,51.91,44c.46,3.85.85,7.71,1.09,11.58.12,1.84.19,3.68.29,5.51a39.88,39.88,0,0,0,.32,5.69,1.48,1.48,0,0,0,2.83,0,25.76,25.76,0,0,0,.2-5.69c0-1.84-.12-3.67-.24-5.51-.26-4-.64-8-1.17-12a185.92,185.92,0,0,0-4.4-22.91c-.51-2-3.55-1.14-3,.84Z"/><path class="cls-1" d="M72.19,8.24c1.58,1.2,3.26,2.25,4.77,3.54a39.83,39.83,0,0,1,4.42,4.39A47.87,47.87,0,0,1,87.7,26.49c.78,1.6,3.24.46,2.81-1.19A30.24,30.24,0,0,0,84,13.6C81.12,10.28,77.48,7,73.38,5.43a1.52,1.52,0,0,0-1.82.89,1.57,1.57,0,0,0,.63,1.92Z"/><path class="cls-1" d="M82.5,2.54a64.2,64.2,0,0,1,8.7,11.64c2.49,4.22,4.06,8.75,5.88,13.27a1.66,1.66,0,0,0,1.78,1.16,1.6,1.6,0,0,0,1.4-1.59c-.64-5.21-2.88-10.18-5.52-14.67A46.35,46.35,0,0,0,84.64.4,1.51,1.51,0,0,0,82.5,2.54Z"/><path class="cls-1" d="M9.79,41.41a15.24,15.24,0,0,0,.89,7.35,16.58,16.58,0,0,0,3.8,6.33,1.52,1.52,0,0,0,2.38-1.83c-.49-1-1.08-1.93-1.54-2.95a20.92,20.92,0,0,1-1-2.65A54.9,54.9,0,0,1,13,41.41a1.66,1.66,0,0,0-1.58-1.21,1.64,1.64,0,0,0-1.59,1.21Z"/><path class="cls-1" d="M0,39.91C.06,50.06,4,60.72,11.74,67.49a1.54,1.54,0,0,0,2.18-2.17C8,58,3.82,49.41,3.24,39.91,3.12,37.84,0,37.8,0,39.91Z"/><path class="cls-2" d="M39,51.82s0,.15,0,.2l0,0a2,2,0,0,1,.41.18,6.73,6.73,0,0,1,1.32,1.73,22.23,22.23,0,0,1,2.15,4.24,11,11,0,0,0,2.25,4.11,4.3,4.3,0,0,0,4.22,1.24,1.08,1.08,0,0,0-.57-2.09c-1.57.35-2.64-1.36-3.16-2.55A41.74,41.74,0,0,0,43.38,54a23.35,23.35,0,0,0-1.54-2.28,4.54,4.54,0,0,0-2-1.68,2.18,2.18,0,0,0-2.35.51,1.84,1.84,0,0,0-.3,2.28c.71,1.08,2.44.09,1.75-1Z"/><path class="cls-2" d="M39.91,61.93c1.19-1.69,2.52-3.26,3.87-4.83.69-.8,1.4-1.6,2.13-2.38a22.13,22.13,0,0,0,2.23-2.42,1.37,1.37,0,0,0-1.88-1.88A15.54,15.54,0,0,0,44,52.83c-.72.86-1.43,1.74-2.13,2.63a53.43,53.43,0,0,0-3.75,5.43,1,1,0,0,0,1.77,1Z"/></g></g></svg>